<?xml version="1.0" standalone="no"?>
<!DOCTYPE svg PUBLIC "-//W3C//DTD SVG 20010904//EN"
 "http://www.w3.org/TR/2001/REC-SVG-20010904/DTD/svg10.dtd">
<svg version="1.0" xmlns="http://www.w3.org/2000/svg"
 width="736.000000pt" height="736.000000pt" viewBox="0 0 736.000000 736.000000"
 preserveAspectRatio="xMidYMid meet">
<metadata>
Created by potrace 1.11, written by Peter Selinger 2001-2013
</metadata>
<g transform="translate(0.000000,736.000000) scale(0.100000,-0.100000)"
fill="#000000" stroke="none">
<path d="M2656 6903 c-15 -8 -31 -26 -37 -40 -5 -15 -9 -169 -9 -371 l1 -345
30 -28 c22 -20 37 -26 56 -23 39 7 63 23 72 47 5 12 8 180 7 374 -1 386 1 374
-62 392 -21 6 -38 4 -58 -6z"/>
<path d="M1375 6539 c-31 -18 -45 -40 -45 -71 0 -26 16 -66 31 -78 3 -3 15
-20 25 -39 10 -18 24 -41 29 -50 6 -9 28 -45 49 -81 22 -36 44 -66 48 -68 4
-2 8 -7 8 -12 0 -8 135 -227 171 -277 48 -68 162 -24 146 56 -6 27 -336 572
-366 603 -21 23 -71 31 -96 17z"/>
<path d="M3955 6538 c-24 -14 -33 -26 -112 -153 -34 -55 -66 -105 -71 -110 -5
-6 -11 -15 -13 -21 -2 -5 -33 -56 -69 -112 -36 -56 -69 -110 -75 -120 -5 -9
-20 -34 -32 -53 -30 -47 -29 -89 0 -118 48 -45 100 -29 147 45 19 30 40 60 46
67 5 7 13 19 17 27 4 8 21 35 37 60 16 25 37 59 46 75 9 17 39 63 66 103 26
41 48 76 48 78 0 3 14 25 30 50 46 66 59 103 49 134 -16 44 -76 69 -114 48z"/>
<path d="M2508 5676 c-32 -7 -58 -10 -58 -8 0 2 -6 -1 -13 -7 -8 -6 -16 -9
-19 -6 -8 8 -132 -31 -225 -71 -91 -39 -217 -112 -288 -167 -94 -74 -225 -205
-225 -227 0 -5 -4 -10 -9 -10 -11 0 -118 -167 -148 -230 -54 -114 -87 -212
-115 -342 -18 -78 -22 -367 -7 -444 32 -160 69 -274 127 -389 35 -70 94 -167
115 -191 7 -7 23 -27 36 -46 70 -94 285 -279 342 -293 36 -9 84 17 97 53 10
29 -7 92 -25 92 -16 0 -128 91 -196 157 -257 252 -381 618 -333 978 9 69 50
220 75 278 11 26 20 48 19 50 -1 1 11 21 25 44 15 24 27 45 27 48 0 3 23 40
52 81 101 149 274 298 443 382 51 25 127 55 145 57 3 0 10 3 15 6 16 10 155
40 215 46 144 16 307 4 440 -31 52 -14 102 -28 111 -30 34 -9 164 -78 229
-121 81 -54 187 -157 249 -240 65 -88 87 -105 124 -94 45 13 75 45 73 79 -2
28 -49 105 -102 165 -14 17 -29 35 -32 40 -17 25 -156 147 -209 183 -129 87
-310 166 -443 191 -30 6 -68 14 -85 17 -56 12 -368 12 -427 0z"/>
<path d="M4793 5635 c-10 -7 -63 -36 -118 -65 -55 -29 -113 -61 -130 -70 -51
-28 -136 -75 -230 -126 -49 -26 -100 -58 -112 -71 -48 -47 -11 -133 58 -133
29 0 90 26 97 43 2 4 12 7 23 7 10 0 19 5 19 10 0 6 5 10 10 10 6 0 58 27 117
60 58 33 107 60 109 60 10 0 260 145 267 154 27 40 12 110 -27 123 -34 11 -65
11 -83 -2z"/>
<path d="M524 5623 c-32 -6 -55 -37 -59 -77 -4 -45 14 -64 120 -120 208 -110
283 -151 320 -171 120 -67 198 -105 220 -105 13 0 36 10 50 23 51 43 33 109
-41 149 -81 43 -471 252 -522 279 -29 16 -56 28 -60 28 -4 -1 -17 -4 -28 -6z"/>
<path d="M4298 4934 c-2 -1 -30 -5 -63 -8 -66 -6 -112 -14 -134 -22 -8 -2 -30
-7 -50 -10 -101 -16 -325 -120 -453 -210 -75 -53 -222 -190 -277 -258 -38 -47
-116 -167 -148 -226 -58 -109 -121 -290 -136 -390 -14 -87 -20 -140 -21 -197
-1 -34 -4 -64 -6 -66 -3 -3 -36 -8 -75 -11 -38 -4 -92 -13 -120 -22 -27 -8
-58 -17 -68 -19 -104 -22 -314 -173 -384 -275 -9 -14 -22 -30 -29 -37 -22 -23
-92 -170 -113 -236 -44 -144 -46 -313 -5 -457 8 -30 16 -59 17 -65 7 -29 60
-131 96 -183 112 -165 284 -288 483 -345 73 -20 83 -21 1613 -23 859 -1 1564
2 1595 7 30 5 69 11 87 14 87 13 244 82 351 152 122 80 261 241 335 389 39 77
84 226 93 309 5 43 5 214 0 250 -31 225 -136 436 -294 591 -44 43 -196 158
-211 159 -3 1 -26 11 -51 24 -130 69 -291 102 -467 98 l-123 -3 -15 52 c-8 29
-15 54 -15 57 0 3 -5 18 -12 34 -6 15 -12 33 -13 39 -2 6 -22 51 -44 100 -77
164 -154 270 -293 407 -55 53 -104 97 -108 97 -5 0 -15 6 -22 13 -42 42 -270
170 -322 182 -6 1 -22 7 -36 12 -46 19 -187 53 -285 69 -27 5 -274 12 -277 8z
m286 -178 c21 -4 57 -11 80 -17 23 -5 50 -12 60 -14 60 -14 142 -47 230 -92
70 -36 176 -105 176 -115 0 -4 6 -8 13 -8 17 0 165 -150 218 -219 100 -134
173 -293 213 -462 13 -54 22 -99 19 -99 -2 0 4 -9 14 -20 26 -27 63 -39 97
-29 97 28 262 28 380 0 301 -72 538 -304 617 -606 21 -81 30 -249 17 -325 -37
-227 -159 -423 -343 -555 -59 -42 -194 -111 -234 -120 -12 -3 -31 -7 -43 -10
-13 -2 -36 -8 -53 -11 -35 -8 -107 -14 -155 -14 -51 1 -61 0 -103 -3 -21 -1
-41 1 -43 5 -3 5 -10 5 -16 2 -14 -9 -182 -9 -196 0 -7 4 -12 4 -12 -1 0 -10
-52 -9 -68 1 -7 4 -17 4 -24 0 -9 -6 -132 -9 -148 -3 -3 1 -9 0 -15 -1 -11 -3
-137 -2 -145 1 -3 1 -9 0 -15 -1 -11 -3 -137 -2 -145 1 -3 1 -9 0 -15 -1 -25
-6 -203 -3 -213 4 -7 4 -12 4 -12 -1 0 -9 -52 -9 -66 0 -6 3 -16 2 -23 -2 -7
-5 -28 -5 -46 -1 -18 4 -38 4 -45 0 -10 -6 -62 -6 -80 1 -3 1 -9 0 -15 -1 -26
-6 -183 -3 -193 4 -7 4 -12 4 -12 -1 0 -10 -52 -9 -68 1 -7 4 -17 4 -24 0 -9
-6 -132 -9 -148 -3 -3 1 -9 0 -15 -1 -25 -6 -203 -3 -213 4 -7 4 -12 4 -12 -1
0 -9 -52 -9 -66 0 -6 3 -16 2 -23 -2 -7 -5 -28 -5 -46 -1 -18 4 -38 4 -45 0
-10 -6 -62 -6 -80 1 -3 1 -9 0 -15 -1 -26 -6 -183 -3 -193 4 -7 4 -12 4 -12
-1 0 -10 -52 -9 -68 1 -7 4 -17 4 -24 0 -15 -9 -138 -11 -138 -2 0 4 -9 4 -21
0 -30 -12 -170 13 -251 44 -205 78 -360 259 -411 482 -29 126 -5 317 54 436
58 115 164 225 276 286 110 61 202 82 346 82 76 0 92 3 114 22 24 21 25 25 28
171 3 158 22 283 55 359 10 24 17 46 14 49 -9 9 118 244 170 311 198 258 455
413 781 471 70 12 306 13 379 1z"/>
<path d="M243 4480 c-50 -14 -78 -55 -68 -101 14 -62 22 -63 404 -64 202 -1
355 2 367 8 22 9 39 36 47 73 7 32 -31 74 -73 81 -45 7 -653 10 -677 3z"/>
<path d="M920 3519 c-217 -119 -276 -151 -350 -191 -67 -36 -100 -71 -100
-104 0 -39 28 -73 66 -80 34 -6 56 5 369 176 28 16 66 36 85 46 19 11 37 21
40 24 3 3 36 21 73 40 38 19 77 46 88 59 40 49 12 117 -53 127 -28 4 -61 -10
-218 -97z"/>
<path d="M1712 2944 c-24 -13 -55 -53 -123 -163 -51 -80 -95 -148 -98 -151 -4
-3 -12 -16 -19 -30 -7 -14 -20 -37 -30 -52 -90 -140 -122 -199 -122 -225 0
-58 66 -99 117 -72 14 7 48 51 76 97 29 45 59 93 67 106 8 12 30 47 48 77 18
30 71 114 117 188 93 147 101 176 60 216 -28 29 -48 31 -93 9z"/>
<path d="M3384 1462 c-12 -9 -92 -156 -177 -325 -118 -233 -154 -314 -151
-335 5 -32 47 -72 74 -72 52 0 68 21 166 214 53 105 122 241 153 301 30 61 58
121 61 135 17 70 -71 127 -126 82z"/>
<path d="M4433 1468 c-28 -14 -333 -615 -333 -657 0 -17 10 -39 27 -56 23 -22
34 -26 62 -21 19 3 40 11 48 18 7 7 82 152 167 321 166 330 169 341 120 385
-27 24 -56 27 -91 10z"/>
<path d="M5462 1457 c-27 -30 -315 -605 -319 -638 -3 -17 5 -37 21 -56 31 -37
75 -42 110 -11 13 13 93 159 177 326 160 319 166 337 123 379 -25 26 -88 25
-112 0z"/>
</g>
</svg>
