<?xml version="1.0" encoding="UTF-8" standalone="no"?>
<!DOCTYPE svg PUBLIC "-//W3C//DTD SVG 1.1//EN" "http://www.w3.org/Graphics/SVG/1.1/DTD/svg11.dtd">
<svg version="1.1" xmlns="http://www.w3.org/2000/svg" xmlns:xlink="http://www.w3.org/1999/xlink" preserveAspectRatio="xMidYMid meet" viewBox="285.1850600000002 249.13492000000002 41.856250000000045 28.641250000000014" width="37.86" height="24.64"><defs><path d="M292.89 273.46C306.49 273.46 314.04 273.46 315.55 273.46C315.7 273.46 315.86 273.46 316.01 273.47C316.01 273.47 316.01 273.46 316.01 273.46C319.71 273.46 322.72 270.45 322.72 266.74C322.72 263.04 319.71 260.03 316.01 260.03C315.48 260.03 314.94 260.1 314.39 260.24C314.21 260.28 314.02 260.25 313.86 260.15C313.71 260.04 313.61 259.88 313.58 259.7C312.83 254.92 308.77 251.45 303.94 251.45C298.55 251.45 294.17 255.83 294.17 261.22C294.17 261.49 294.19 261.75 294.21 262.01C294.23 262.2 294.15 262.4 294.01 262.53C293.87 262.67 293.68 262.74 293.48 262.72C293.29 262.7 293.09 262.68 292.89 262.68C289.92 262.68 287.5 265.1 287.5 268.07C287.5 271.04 289.92 273.46 292.89 273.46M292.85 261.37C292.85 261.32 292.85 261.27 292.85 261.22C292.85 255.11 297.83 250.13 303.94 250.13C309.2 250.13 313.64 253.75 314.75 258.82C315.18 258.75 315.6 258.71 316.01 258.71C320.44 258.71 324.04 262.31 324.04 266.74C324.04 271.17 320.44 274.78 316.01 274.78C315.61 274.78 313.61 274.78 310.01 274.78C299.74 274.78 294.03 274.78 292.89 274.78C289.19 274.78 286.19 271.77 286.19 268.07C286.19 264.39 289.17 261.38 292.85 261.37" id="a1rNp1FaQi"></path></defs><g><g><use xlink:href="#a1rNp1FaQi" opacity="1" fill="current" fill-opacity="1"></use><g><use xlink:href="#a1rNp1FaQi" opacity="1" fill-opacity="0" stroke="#000000" stroke-width="1" stroke-opacity="0"></use></g></g></g></svg>
