<?xml version="1.0" encoding="UTF-8" standalone="no"?>
<!DOCTYPE svg PUBLIC "-//W3C//DTD SVG 1.1//EN" "http://www.w3.org/Graphics/SVG/1.1/DTD/svg11.dtd">
<svg version="1.1" xmlns="http://www.w3.org/2000/svg" xmlns:xlink="http://www.w3.org/1999/xlink" preserveAspectRatio="xMidYMid meet" viewBox="487.08823031249983 509.648697775 26.650006093749994 37.67301320965095" width="22.65" height="33.67"><defs><path d="M498.81 511.55L497 514.27C496.91 514.27 496.86 514.27 496.85 514.27C496.12 515.37 494.04 518.71 492.01 522.43C489.99 526.14 488.09 530.11 488.09 533C488.09 539.23 493.18 544.32 499.41 544.32C505.66 544.33 510.74 539.23 510.74 533C510.74 530.11 508.84 526.14 506.81 522.43C504.79 518.71 502.57 515.38 501.83 514.27C501.71 514.09 501.1 513.19 500.02 511.55L499.41 510.65L498.81 511.55ZM500.62 515.03C501.35 516.11 503.47 519.38 505.45 523.03C507.44 526.68 509.23 530.83 509.23 533C509.23 538.41 504.85 542.82 499.41 542.81C493.99 542.81 489.6 538.41 489.6 533C489.6 530.83 491.23 526.68 493.22 523.03C495.21 519.38 497.48 516.11 498.21 515.03C498.29 514.91 498.69 514.3 499.41 513.22C500.14 514.3 500.54 514.91 500.62 515.03Z" id="a1Idiocc0l"></path></defs><g><g><use xlink:href="#a1Idiocc0l" opacity="1" fill="#357491" fill-opacity="1"></use><g><use xlink:href="#a1Idiocc0l" opacity="1" fill-opacity="0" stroke="#000000" stroke-width="0.31" stroke-opacity="0"></use></g></g></g></svg>