<?xml version="1.0" encoding="UTF-8" standalone="no"?>
<!DOCTYPE svg PUBLIC "-//W3C//DTD SVG 1.1//EN" "http://www.w3.org/Graphics/SVG/1.1/DTD/svg11.dtd">
<svg version="1.1" xmlns="http://www.w3.org/2000/svg" xmlns:xlink="http://www.w3.org/1999/xlink" preserveAspectRatio="xMidYMid meet" viewBox="286.1532061336099 484.1126220011791 26.649999999999977 37.67001468083441" width="22.65" height="33.67"><defs><path d="M296.56 487.32C295.06 491.05 293.95 493.19 291.06 497.88C289.85 499.85 289.35 500.68 288.93 501.46C288.01 503.17 287.45 504.77 287.22 506.34C287.14 506.9 287.13 509.13 287.2 509.65C287.32 510.49 287.67 511.62 288.07 512.44C288.64 513.64 289.47 514.76 290.46 515.69C292.25 517.38 294.48 518.42 296.97 518.74C297.43 518.8 299.5 518.8 299.99 518.74C300.2 518.71 300.56 518.66 300.81 518.61C302.44 518.3 304.15 517.55 305.52 516.53C306.01 516.16 307 515.24 307.39 514.78C308.38 513.6 309.13 512.2 309.55 510.71C309.75 510 309.78 509.75 309.8 508.3C309.82 506.82 309.79 506.38 309.64 505.7C309.16 503.47 308.44 501.96 305.86 497.79C303.19 493.47 301.88 490.99 300.62 487.86C299.75 485.69 299.65 485.51 299.07 485.26C298.7 485.09 298.4 485.07 298.06 485.18C297.4 485.41 297.25 485.62 296.56 487.32ZM299.13 489.88C300.36 492.71 301.38 494.58 304.05 498.93C305.27 500.91 305.63 501.54 306.18 502.59C307.16 504.48 307.54 505.71 307.68 507.51C307.79 508.85 307.53 510.29 306.94 511.58C306.1 513.41 304.58 514.92 302.66 515.84C301.69 516.3 300.77 516.58 299.66 516.72C299.13 516.8 297.96 516.81 297.44 516.74C295.26 516.48 293.38 515.6 291.87 514.14C291.12 513.42 290.67 512.81 290.2 511.91C289.48 510.53 289.21 509.22 289.3 507.53C289.39 505.89 289.75 504.62 290.64 502.84C291.06 501.99 291.61 501.05 292.88 499C294.62 496.17 295.07 495.4 295.94 493.77C296.74 492.26 297.33 491.05 297.98 489.55C298.13 489.2 298.28 488.88 298.31 488.83C298.38 488.74 298.51 488.72 298.6 488.8C298.69 488.89 298.78 489.07 299.13 489.88Z" id="c7MXbirjyd"></path></defs><g><g><use xlink:href="#c7MXbirjyd" opacity="1" fill="#ffffff" fill-opacity="1"></use><g><use xlink:href="#c7MXbirjyd" opacity="1" fill-opacity="0" stroke="#000000" stroke-width="1" stroke-opacity="0"></use></g></g></g></svg>