<?xml version="1.0" encoding="UTF-8" standalone="no"?>
<!DOCTYPE svg PUBLIC "-//W3C//DTD SVG 1.1//EN" "http://www.w3.org/Graphics/SVG/1.1/DTD/svg11.dtd">
<svg version="1.1" xmlns="http://www.w3.org/2000/svg" xmlns:xlink="http://www.w3.org/1999/xlink" preserveAspectRatio="xMidYMid meet" viewBox="183.89894 157.96279999999985 53.406319999999994 41.07386999999983" width="49.41" height="37.07"><defs><path d="M205.83 194.83C218.26 194.83 225.17 194.83 226.55 194.83C226.69 194.83 226.83 194.83 226.96 194.85C226.96 194.84 226.96 194.83 226.96 194.83C230.35 194.83 233.1 192.08 233.1 188.7C233.1 185.31 230.35 182.56 226.96 182.56C226.49 182.56 225.99 182.62 225.48 182.75C225.32 182.79 225.15 182.76 225.01 182.66C224.87 182.57 224.77 182.42 224.74 182.25C224.06 177.89 220.35 174.72 215.93 174.72C211.01 174.72 207 178.72 207 183.65C207 183.89 207.02 184.13 207.04 184.37C207.06 184.54 206.99 184.72 206.86 184.85C206.73 184.97 206.56 185.03 206.38 185.01C206.2 185 206.02 184.98 205.83 184.98C203.12 184.98 200.91 187.19 200.91 189.91C200.91 192.62 203.12 194.83 205.83 194.83M205.8 183.78C205.8 183.74 205.8 183.69 205.8 183.65C205.8 178.06 210.35 173.51 215.93 173.51C220.74 173.51 224.8 176.81 225.82 181.45C226.21 181.38 226.59 181.35 226.96 181.35C231.01 181.35 234.31 184.65 234.31 188.7C234.31 192.74 231.01 196.04 226.96 196.04C226.96 196.04 226.96 196.04 226.96 196.04C226.87 196.04 224.55 196.04 221.49 196.04C219.92 196.04 207.4 196.04 205.83 196.04C202.45 196.04 199.71 193.29 199.71 189.91C199.71 186.54 202.44 183.8 205.8 183.78" id="b26JUA3Qd0"></path><path d="M193.84 177.69C193.84 172.33 198.21 167.96 203.57 167.96C206.85 167.96 209.7 169.37 211.5 172.11C211.69 172.39 211.61 172.76 211.33 172.94C211.05 173.13 210.68 173.05 210.5 172.77C208.91 170.37 206.45 169.17 203.57 169.17C198.87 169.17 195.04 172.99 195.04 177.69C195.04 180.61 196.51 183.29 198.95 184.87C199.23 185.05 199.31 185.42 199.13 185.7C199.02 185.88 198.83 185.98 198.63 185.98C198.52 185.98 198.4 185.95 198.3 185.88C195.51 184.08 193.84 181.02 193.84 177.69" id="b39ev9x4Zz"></path><path d="M203.44 164.98C203.11 164.98 202.84 164.71 202.84 164.38C202.84 163.9 202.84 160.05 202.84 159.56C202.84 159.23 203.11 158.96 203.44 158.96C203.78 158.96 204.05 159.23 204.05 159.56C204.05 160.05 204.05 163.9 204.05 164.38C204.05 164.71 203.78 164.98 203.44 164.98" id="c2vwb09B4i"></path><path d="M196.85 166.86C196.75 166.92 196.65 166.95 196.54 166.95C196.34 166.95 196.14 166.84 196.02 166.66C195.77 166.25 193.74 162.98 193.49 162.57C193.32 162.29 193.4 161.91 193.69 161.74C193.97 161.56 194.34 161.65 194.52 161.93C194.77 162.34 196.79 165.62 197.05 166.03C197.22 166.31 197.14 166.68 196.85 166.86" id="a7YYCSIUs"></path><path d="M191.87 171.92C191.78 171.92 191.68 171.9 191.59 171.85C191.16 171.62 187.77 169.81 187.34 169.58C187.05 169.42 186.94 169.06 187.1 168.76C187.25 168.47 187.62 168.36 187.91 168.52C188.34 168.74 191.73 170.56 192.16 170.79C192.45 170.95 192.56 171.31 192.4 171.6C192.3 171.81 192.09 171.92 191.87 171.92" id="b4kL2grvTI"></path><path d="M185.5 176.86L185.5 176.86C188.39 176.87 190 176.88 190.32 176.88C190.65 176.88 190.92 177.15 190.92 177.48C190.92 177.81 190.65 178.08 190.32 178.08C190.32 178.08 190.32 178.08 190.32 178.08C187.43 178.07 185.82 178.07 185.5 178.07C185.17 178.07 184.9 177.8 184.9 177.46C184.9 177.13 185.17 176.86 185.5 176.86" id="acUlBXfMd"></path><path d="M187.4 185.58C189.94 184.19 191.35 183.42 191.63 183.27C191.92 183.11 192.29 183.21 192.45 183.51C192.61 183.8 192.5 184.16 192.21 184.32C191.78 184.55 188.4 186.4 187.98 186.63C187.89 186.68 187.79 186.71 187.69 186.71C187.48 186.71 187.27 186.59 187.16 186.39C187 186.1 187.11 185.74 187.4 185.58" id="e1mRfCcxVW"></path><path d="M219.49 169.41C216.95 170.8 215.54 171.57 215.26 171.72C215.17 171.78 215.07 171.8 214.97 171.8C214.76 171.8 214.55 171.68 214.44 171.48C214.28 171.19 214.39 170.83 214.68 170.67C215.1 170.44 218.49 168.59 218.91 168.36C219.2 168.2 219.57 168.3 219.73 168.6C219.88 168.89 219.78 169.25 219.49 169.41" id="a7TSJpvM9"></path><path d="M196.8 188.12C197.08 188.3 197.17 188.67 196.99 188.95C196.74 189.36 194.69 192.63 194.44 193.04C194.32 193.22 194.13 193.32 193.93 193.32C193.82 193.32 193.71 193.29 193.61 193.23C193.32 193.05 193.24 192.68 193.42 192.4C193.59 192.13 194.44 190.76 195.97 188.31C196.33 188.07 196.61 188 196.8 188.12Z" id="adJClUmfX"></path><path d="M210.41 166.96C210.3 166.96 210.19 166.93 210.09 166.87C209.8 166.69 209.72 166.32 209.9 166.04C210.15 165.63 212.2 162.36 212.45 161.95C212.63 161.67 213 161.59 213.28 161.76C213.56 161.94 213.65 162.31 213.47 162.59C213.3 162.87 212.45 164.23 210.92 166.68C210.71 166.87 210.54 166.96 210.41 166.96Z" id="cHTbSn4OX"></path></defs><g><g><use xlink:href="#b26JUA3Qd0" opacity="1" fill="current" fill-opacity="1"></use><g><use xlink:href="#b26JUA3Qd0" opacity="1" fill-opacity="0" stroke="#000000" stroke-width="1" stroke-opacity="0"></use></g></g><g><use xlink:href="#b39ev9x4Zz" opacity="1" fill="current" fill-opacity="1"></use><g><use xlink:href="#b39ev9x4Zz" opacity="1" fill-opacity="0" stroke="#000000" stroke-width="1" stroke-opacity="0"></use></g></g><g><use xlink:href="#c2vwb09B4i" opacity="1" fill="current" fill-opacity="1"></use><g><use xlink:href="#c2vwb09B4i" opacity="1" fill-opacity="0" stroke="#000000" stroke-width="1" stroke-opacity="0"></use></g></g><g><use xlink:href="#a7YYCSIUs" opacity="1" fill="current" fill-opacity="1"></use><g><use xlink:href="#a7YYCSIUs" opacity="1" fill-opacity="0" stroke="#000000" stroke-width="1" stroke-opacity="0"></use></g></g><g><use xlink:href="#b4kL2grvTI" opacity="1" fill="current" fill-opacity="1"></use><g><use xlink:href="#b4kL2grvTI" opacity="1" fill-opacity="0" stroke="#000000" stroke-width="1" stroke-opacity="0"></use></g></g><g><use xlink:href="#acUlBXfMd" opacity="1" fill="current" fill-opacity="1"></use><g><use xlink:href="#acUlBXfMd" opacity="1" fill-opacity="0" stroke="#000000" stroke-width="1" stroke-opacity="0"></use></g></g><g><use xlink:href="#e1mRfCcxVW" opacity="1" fill="current" fill-opacity="1"></use><g><use xlink:href="#e1mRfCcxVW" opacity="1" fill-opacity="0" stroke="#000000" stroke-width="1" stroke-opacity="0"></use></g></g><g><use xlink:href="#a7TSJpvM9" opacity="1" fill="current" fill-opacity="1"></use><g><use xlink:href="#a7TSJpvM9" opacity="1" fill-opacity="0" stroke="#000000" stroke-width="1" stroke-opacity="0"></use></g></g><g><use xlink:href="#adJClUmfX" opacity="1" fill="current" fill-opacity="1"></use><g><use xlink:href="#adJClUmfX" opacity="1" fill-opacity="0" stroke="#000000" stroke-width="1" stroke-opacity="0"></use></g></g><g><use xlink:href="#cHTbSn4OX" opacity="1" fill="current" fill-opacity="1"></use><g><use xlink:href="#cHTbSn4OX" opacity="1" fill-opacity="0" stroke="#000000" stroke-width="1" stroke-opacity="0"></use></g></g></g></svg>
