<?xml version="1.0" encoding="UTF-8" standalone="no"?>
<!DOCTYPE svg PUBLIC "-//W3C//DTD SVG 1.1//EN" "http://www.w3.org/Graphics/SVG/1.1/DTD/svg11.dtd">
<svg version="1.1" xmlns="http://www.w3.org/2000/svg" xmlns:xlink="http://www.w3.org/1999/xlink" preserveAspectRatio="xMidYMid meet" viewBox="472.11012999999997 245.02641999999997 51.33564999999993 45.98700000000002" width="47.34" height="41.99"><defs><path d="M489.24 273.84C502.86 273.84 510.43 273.84 511.94 273.84C512.1 273.84 512.25 273.84 512.4 273.86C512.4 273.85 512.4 273.84 512.4 273.84C516.11 273.84 519.13 270.82 519.13 267.12C519.13 263.41 516.11 260.39 512.4 260.39C511.87 260.39 511.33 260.46 510.78 260.59C510.6 260.64 510.41 260.61 510.25 260.5C510.1 260.4 510 260.24 509.97 260.06C509.22 255.27 505.15 251.8 500.31 251.8C494.92 251.8 490.52 256.19 490.52 261.58C490.52 261.85 490.54 262.11 490.57 262.37C490.58 262.57 490.51 262.76 490.37 262.9C490.23 263.04 490.03 263.1 489.84 263.08C489.64 263.06 489.44 263.05 489.24 263.05C486.27 263.05 483.85 265.47 483.85 268.44C483.85 271.42 486.27 273.84 489.24 273.84M489.21 261.73C489.21 261.68 489.2 261.63 489.2 261.58C489.2 255.46 494.19 250.48 500.31 250.48C505.58 250.48 510.03 254.09 511.14 259.17C511.57 259.1 511.99 259.07 512.4 259.07C516.84 259.07 520.45 262.68 520.45 267.12C520.45 271.55 516.84 275.16 512.4 275.16C512 275.16 510 275.16 506.4 275.16C496.1 275.16 490.39 275.16 489.24 275.16C485.54 275.16 482.53 272.15 482.53 268.44C482.53 264.75 485.52 261.75 489.21 261.73" id="e3QCDcSIwR"></path><path d="M481.16 254.62C481.57 254.62 481.99 254.66 482.41 254.72C483.53 249.65 487.98 246.03 493.24 246.03C495.54 246.03 497.74 246.72 499.61 248.03C499.91 248.24 499.98 248.65 499.77 248.95C499.56 249.25 499.15 249.32 498.85 249.11C497.2 247.96 495.26 247.35 493.24 247.35C488.4 247.35 484.34 250.82 483.59 255.61C483.56 255.79 483.46 255.95 483.3 256.06C483.15 256.16 482.96 256.19 482.78 256.15C482.23 256.01 481.68 255.94 481.16 255.94C477.45 255.94 474.43 258.96 474.43 262.67C474.43 266.12 477.02 269 480.46 269.35C480.82 269.39 481.08 269.72 481.05 270.08C481.01 270.42 480.72 270.67 480.39 270.67C480.37 270.67 480.34 270.67 480.32 270.67C476.21 270.24 473.11 266.8 473.11 262.67C473.11 258.23 476.72 254.62 481.16 254.62" id="bhSAmlEbJ"></path><path d="M492.48 278.16C492.17 278 491.78 278.13 491.63 278.45C491.19 279.31 487.74 286.22 487.3 287.09C487.15 287.4 487.28 287.79 487.59 287.95C487.68 287.99 487.78 288.01 487.88 288.01C488.11 288.01 488.34 287.88 488.45 287.66C488.88 286.8 492.34 279.88 492.77 279.02C492.93 278.7 492.8 278.32 492.48 278.16" id="f1yDkX3csH"></path><path d="M499.69 278.16C499.37 278 498.99 278.13 498.83 278.45C498.4 279.31 494.94 286.22 494.51 287.09C494.35 287.4 494.48 287.79 494.8 287.95C494.89 287.99 494.99 288.01 495.08 288.01C495.32 288.01 495.54 287.88 495.66 287.66C496.09 286.8 499.54 279.88 499.98 279.02C500.14 278.7 500.01 278.32 499.69 278.16" id="c8EON1daJ"></path><path d="M506.89 278.16C506.58 278 506.19 278.13 506.03 278.45C505.6 279.31 502.15 286.22 501.71 287.09C501.56 287.4 501.68 287.79 502 287.95C502.09 287.99 502.19 288.01 502.29 288.01C502.52 288.01 502.75 287.88 502.86 287.66C503.29 286.8 506.75 279.88 507.18 279.02C507.34 278.7 507.21 278.32 506.89 278.16" id="e2jSUstX0a"></path></defs><g><g><use xlink:href="#e3QCDcSIwR" opacity="1" fill="current" fill-opacity="1"></use><g><use xlink:href="#e3QCDcSIwR" opacity="1" fill-opacity="0" stroke="#000000" stroke-width="1" stroke-opacity="0"></use></g></g><g><use xlink:href="#bhSAmlEbJ" opacity="1" fill="current" fill-opacity="1"></use><g><use xlink:href="#bhSAmlEbJ" opacity="1" fill-opacity="0" stroke="#000000" stroke-width="1" stroke-opacity="0"></use></g></g><g><use xlink:href="#f1yDkX3csH" opacity="1" fill="current" fill-opacity="1"></use><g><use xlink:href="#f1yDkX3csH" opacity="1" fill-opacity="0" stroke="#000000" stroke-width="1" stroke-opacity="0"></use></g></g><g><use xlink:href="#c8EON1daJ" opacity="1" fill="current" fill-opacity="1"></use><g><use xlink:href="#c8EON1daJ" opacity="1" fill-opacity="0" stroke="#000000" stroke-width="1" stroke-opacity="0"></use></g></g><g><use xlink:href="#e2jSUstX0a" opacity="1" fill="current" fill-opacity="1"></use><g><use xlink:href="#e2jSUstX0a" opacity="1" fill-opacity="0" stroke="#000000" stroke-width="1" stroke-opacity="0"></use></g></g></g></svg>
