<?xml version="1.0" encoding="UTF-8" standalone="no"?>
<!DOCTYPE svg PUBLIC "-//W3C//DTD SVG 1.1//EN" "http://www.w3.org/Graphics/SVG/1.1/DTD/svg11.dtd">
<svg version="1.1" xmlns="http://www.w3.org/2000/svg" xmlns:xlink="http://www.w3.org/1999/xlink" preserveAspectRatio="xMidYMid meet" viewBox="475.12311000000005 418.97867 50.215800000000115 50.30430999999987" width="46.22" height="46.3"><defs><path d="M491.87 447.13C505.17 447.13 512.56 447.13 514.04 447.13C514.19 447.13 514.34 447.13 514.48 447.15C514.48 447.15 514.48 447.13 514.48 447.13C518.1 447.13 521.05 444.19 521.05 440.57C521.05 436.95 518.1 434 514.48 434C513.97 434 513.44 434.07 512.9 434.2C512.72 434.25 512.54 434.21 512.39 434.11C512.24 434.01 512.13 433.85 512.11 433.68C511.37 429 507.41 425.61 502.68 425.61C497.41 425.61 493.12 429.9 493.12 435.17C493.12 435.43 493.14 435.68 493.17 435.94C493.18 436.13 493.11 436.32 492.97 436.45C492.84 436.58 492.64 436.65 492.45 436.63C492.26 436.61 492.07 436.6 491.87 436.6C488.97 436.6 486.6 438.96 486.6 441.86C486.6 444.77 488.97 447.13 491.87 447.13M491.84 435.31C491.84 435.26 491.84 435.21 491.84 435.17C491.84 429.19 496.7 424.32 502.68 424.32C507.82 424.32 512.17 427.85 513.26 432.81C513.67 432.75 514.08 432.71 514.48 432.71C518.82 432.71 522.34 436.24 522.34 440.57C522.34 444.9 518.82 448.42 514.48 448.42C514.09 448.42 512.14 448.42 508.62 448.42C498.57 448.42 492.99 448.42 491.87 448.42C488.26 448.42 485.32 445.48 485.32 441.86C485.32 438.26 488.24 435.33 491.84 435.31" id="cyTZcHhEc"></path><path d="M483.98 428.37C484.38 428.37 484.79 428.4 485.2 428.47C486.29 423.51 490.64 419.98 495.78 419.98C498.02 419.98 500.17 420.66 502 421.94C502.29 422.14 502.36 422.54 502.15 422.83C501.95 423.13 501.55 423.2 501.25 422.99C499.65 421.86 497.75 421.27 495.78 421.27C491.05 421.27 487.09 424.66 486.35 429.33C486.33 429.51 486.22 429.67 486.07 429.77C485.92 429.87 485.74 429.9 485.56 429.86C485.02 429.72 484.49 429.66 483.98 429.66C480.36 429.66 477.41 432.6 477.41 436.22C477.41 439.6 479.94 442.41 483.3 442.75C483.65 442.79 483.91 443.11 483.87 443.46C483.84 443.79 483.56 444.04 483.23 444.04C483.21 444.04 483.18 444.04 483.16 444.04C479.15 443.62 476.12 440.26 476.12 436.22C476.12 431.89 479.65 428.37 483.98 428.37" id="a50wGC8vNr"></path><path d="M491.41 453.59C491.04 453.59 490.75 453.88 490.74 454.25C490.74 454.32 490.74 454.66 490.74 455.27C490.13 455.27 489.79 455.27 489.72 455.27C489.36 455.27 489.06 455.57 489.06 455.93C489.06 456.3 489.36 456.6 489.72 456.6C489.79 456.6 490.13 456.6 490.74 456.6C490.74 457.21 490.74 457.55 490.74 457.62C490.74 457.99 491.04 458.28 491.41 458.28C491.59 458.28 491.76 458.21 491.88 458.09C492 457.97 492.07 457.8 492.07 457.62C492.07 457.55 492.07 457.21 492.07 456.6C492.68 456.6 493.02 456.6 493.09 456.6C493.28 456.6 493.44 456.52 493.56 456.4C493.68 456.28 493.76 456.12 493.76 455.93C493.76 455.57 493.46 455.27 493.09 455.27C493.02 455.27 492.68 455.27 492.07 455.27C492.07 454.66 492.07 454.32 492.07 454.25C492.07 453.88 491.77 453.59 491.41 453.59" id="d1JkVbQ9l"></path><path d="M503.41 453.59C503.04 453.59 502.75 453.88 502.74 454.25C502.74 454.32 502.74 454.66 502.74 455.27C502.13 455.27 501.79 455.27 501.72 455.27C501.36 455.27 501.06 455.57 501.06 455.93C501.06 456.3 501.36 456.6 501.72 456.6C501.79 456.6 502.13 456.6 502.74 456.6C502.74 457.21 502.74 457.55 502.74 457.62C502.74 457.99 503.04 458.28 503.41 458.28C503.59 458.28 503.76 458.21 503.88 458.09C504 457.97 504.07 457.8 504.07 457.62C504.07 457.55 504.07 457.21 504.07 456.6C504.68 456.6 505.02 456.6 505.09 456.6C505.28 456.6 505.44 456.52 505.56 456.4C505.68 456.28 505.76 456.12 505.76 455.93C505.76 455.57 505.46 455.27 505.09 455.27C505.02 455.27 504.68 455.27 504.07 455.27C504.07 454.66 504.07 454.32 504.07 454.25C504.07 453.88 503.77 453.59 503.41 453.59" id="e1nk51B6b"></path><path d="M515.41 453.59C515.04 453.59 514.75 453.88 514.74 454.25C514.74 454.32 514.74 454.66 514.74 455.27C514.13 455.27 513.79 455.27 513.72 455.27C513.36 455.27 513.06 455.57 513.06 455.93C513.06 456.3 513.36 456.6 513.72 456.6C513.79 456.6 514.13 456.6 514.74 456.6C514.74 457.21 514.74 457.55 514.74 457.62C514.74 457.99 515.04 458.28 515.41 458.28C515.59 458.28 515.76 458.21 515.88 458.09C516 457.97 516.07 457.8 516.07 457.62C516.07 457.55 516.07 457.21 516.07 456.6C516.68 456.6 517.02 456.6 517.09 456.6C517.28 456.6 517.44 456.52 517.56 456.4C517.68 456.28 517.76 456.12 517.76 455.93C517.76 455.57 517.46 455.27 517.09 455.27C517.02 455.27 516.68 455.27 516.07 455.27C516.07 454.66 516.07 454.32 516.07 454.25C516.07 453.88 515.77 453.59 515.41 453.59" id="e3u0tHRThI"></path><path d="M485.41 461.59C485.04 461.59 484.75 461.88 484.74 462.25C484.74 462.32 484.74 462.66 484.74 463.27C484.13 463.27 483.79 463.27 483.72 463.27C483.36 463.27 483.06 463.57 483.06 463.93C483.06 464.3 483.36 464.6 483.72 464.6C483.79 464.6 484.13 464.6 484.74 464.6C484.74 465.21 484.74 465.55 484.74 465.62C484.74 465.99 485.04 466.28 485.41 466.28C485.59 466.28 485.76 466.21 485.88 466.09C486 465.97 486.07 465.8 486.07 465.62C486.07 465.55 486.07 465.21 486.07 464.6C486.68 464.6 487.02 464.6 487.09 464.6C487.28 464.6 487.44 464.52 487.56 464.4C487.68 464.28 487.76 464.12 487.76 463.93C487.76 463.57 487.46 463.27 487.09 463.27C487.02 463.27 486.68 463.27 486.07 463.27C486.07 462.66 486.07 462.32 486.07 462.25C486.07 461.88 485.77 461.59 485.41 461.59" id="a1Rwxlj67S"></path><path d="M497.41 461.59C497.04 461.59 496.75 461.88 496.74 462.25C496.74 462.32 496.74 462.66 496.74 463.27C496.13 463.27 495.79 463.27 495.72 463.27C495.36 463.27 495.06 463.57 495.06 463.93C495.06 464.3 495.36 464.6 495.72 464.6C495.79 464.6 496.13 464.6 496.74 464.6C496.74 465.21 496.74 465.55 496.74 465.62C496.74 465.99 497.04 466.28 497.41 466.28C497.59 466.28 497.76 466.21 497.88 466.09C498 465.97 498.07 465.8 498.07 465.62C498.07 465.55 498.07 465.21 498.07 464.6C498.68 464.6 499.02 464.6 499.09 464.6C499.28 464.6 499.44 464.52 499.56 464.4C499.68 464.28 499.76 464.12 499.76 463.93C499.76 463.57 499.46 463.27 499.09 463.27C499.02 463.27 498.68 463.27 498.07 463.27C498.07 462.66 498.07 462.32 498.07 462.25C498.07 461.88 497.77 461.59 497.41 461.59" id="c3ge6D401y"></path><path d="M509.41 461.59C509.04 461.59 508.75 461.88 508.74 462.25C508.74 462.32 508.74 462.66 508.74 463.27C508.13 463.27 507.79 463.27 507.72 463.27C507.36 463.27 507.06 463.57 507.06 463.93C507.06 464.3 507.36 464.6 507.72 464.6C507.79 464.6 508.13 464.6 508.74 464.6C508.74 465.21 508.74 465.55 508.74 465.62C508.74 465.99 509.04 466.28 509.41 466.28C509.59 466.28 509.76 466.21 509.88 466.09C510 465.97 510.07 465.8 510.07 465.62C510.07 465.55 510.07 465.21 510.07 464.6C510.68 464.6 511.02 464.6 511.09 464.6C511.28 464.6 511.44 464.52 511.56 464.4C511.68 464.28 511.76 464.12 511.76 463.93C511.76 463.57 511.46 463.27 511.09 463.27C511.02 463.27 510.68 463.27 510.07 463.27C510.07 462.66 510.07 462.32 510.07 462.25C510.07 461.88 509.77 461.59 509.41 461.59" id="b2ASPXgLGh"></path></defs><g><g><use xlink:href="#cyTZcHhEc" opacity="1" fill="#357491" fill-opacity="1"></use><g><use xlink:href="#cyTZcHhEc" opacity="1" fill-opacity="0" stroke="#000000" stroke-width="1" stroke-opacity="0"></use></g></g><g><use xlink:href="#a50wGC8vNr" opacity="1" fill="#357491" fill-opacity="1"></use><g><use xlink:href="#a50wGC8vNr" opacity="1" fill-opacity="0" stroke="#000000" stroke-width="1" stroke-opacity="0"></use></g></g><g><use xlink:href="#d1JkVbQ9l" opacity="1" fill="#357491" fill-opacity="1"></use><g><use xlink:href="#d1JkVbQ9l" opacity="1" fill-opacity="0" stroke="#000000" stroke-width="1" stroke-opacity="0"></use></g></g><g><use xlink:href="#e1nk51B6b" opacity="1" fill="#357491" fill-opacity="1"></use><g><use xlink:href="#e1nk51B6b" opacity="1" fill-opacity="0" stroke="#000000" stroke-width="1" stroke-opacity="0"></use></g></g><g><use xlink:href="#e3u0tHRThI" opacity="1" fill="#357491" fill-opacity="1"></use><g><use xlink:href="#e3u0tHRThI" opacity="1" fill-opacity="0" stroke="#000000" stroke-width="1" stroke-opacity="0"></use></g></g><g><use xlink:href="#a1Rwxlj67S" opacity="1" fill="#357491" fill-opacity="1"></use><g><use xlink:href="#a1Rwxlj67S" opacity="1" fill-opacity="0" stroke="#000000" stroke-width="1" stroke-opacity="0"></use></g></g><g><use xlink:href="#c3ge6D401y" opacity="1" fill="#357491" fill-opacity="1"></use><g><use xlink:href="#c3ge6D401y" opacity="1" fill-opacity="0" stroke="#000000" stroke-width="1" stroke-opacity="0"></use></g></g><g><use xlink:href="#b2ASPXgLGh" opacity="1" fill="#357491" fill-opacity="1"></use><g><use xlink:href="#b2ASPXgLGh" opacity="1" fill-opacity="0" stroke="#000000" stroke-width="1" stroke-opacity="0"></use></g></g></g></svg>