<?xml version="1.0" encoding="UTF-8" standalone="no"?>
<!DOCTYPE svg PUBLIC "-//W3C//DTD SVG 1.1//EN" "http://www.w3.org/Graphics/SVG/1.1/DTD/svg11.dtd">
<svg version="1.1" xmlns="http://www.w3.org/2000/svg" xmlns:xlink="http://www.w3.org/1999/xlink" preserveAspectRatio="xMidYMid meet" viewBox="275.78226000000006 244.69167 51.25905000000017 33.08450000000005" width="47.26" height="29.08"><defs><path d="M292.89 273.46C306.49 273.46 314.04 273.46 315.55 273.46C315.7 273.46 315.86 273.46 316.01 273.47C316.01 273.47 316.01 273.46 316.01 273.46C319.71 273.46 322.72 270.45 322.72 266.74C322.72 263.04 319.71 260.03 316.01 260.03C315.48 260.03 314.94 260.1 314.39 260.24C314.21 260.28 314.02 260.25 313.86 260.15C313.71 260.04 313.61 259.88 313.58 259.7C312.83 254.92 308.77 251.45 303.94 251.45C298.55 251.45 294.17 255.83 294.17 261.22C294.17 261.49 294.19 261.75 294.21 262.01C294.23 262.2 294.15 262.4 294.01 262.53C293.87 262.67 293.68 262.74 293.48 262.72C293.29 262.7 293.09 262.68 292.89 262.68C289.92 262.68 287.5 265.1 287.5 268.07C287.5 271.04 289.92 273.46 292.89 273.46M292.85 261.37C292.85 261.32 292.85 261.27 292.85 261.22C292.85 255.11 297.83 250.13 303.94 250.13C309.2 250.13 313.64 253.75 314.75 258.82C315.18 258.75 315.6 258.71 316.01 258.71C320.44 258.71 324.04 262.31 324.04 266.74C324.04 271.17 320.44 274.78 316.01 274.78C315.61 274.78 313.61 274.78 310.01 274.78C299.74 274.78 294.03 274.78 292.89 274.78C289.19 274.78 286.19 271.77 286.19 268.07C286.19 264.39 289.17 261.38 292.85 261.37" id="i43M6jBNo3"></path><path d="M284.81 254.27C285.23 254.27 285.65 254.31 286.07 254.37C287.18 249.3 291.63 245.69 296.88 245.69C299.17 245.69 301.37 246.38 303.24 247.69C303.54 247.9 303.61 248.31 303.4 248.61C303.19 248.91 302.78 248.98 302.48 248.77C300.84 247.62 298.9 247.01 296.88 247.01C292.05 247.01 287.99 250.48 287.24 255.26C287.21 255.44 287.11 255.6 286.96 255.7C286.8 255.81 286.61 255.84 286.44 255.79C285.88 255.66 285.34 255.59 284.81 255.59C281.11 255.59 278.1 258.6 278.1 262.3C278.1 265.76 280.69 268.63 284.12 268.98C284.48 269.02 284.74 269.34 284.7 269.7C284.67 270.04 284.38 270.3 284.05 270.3C284.03 270.3 284 270.29 283.98 270.29C279.88 269.87 276.78 266.43 276.78 262.3C276.78 257.87 280.39 254.27 284.81 254.27" id="a3Se5bfRKO"></path></defs><g><g><use xlink:href="#i43M6jBNo3" opacity="1" fill="current" fill-opacity="1"></use><g><use xlink:href="#i43M6jBNo3" opacity="1" fill-opacity="0" stroke="#000000" stroke-width="1" stroke-opacity="0"></use></g></g><g><use xlink:href="#a3Se5bfRKO" opacity="1" fill="current" fill-opacity="1"></use><g><use xlink:href="#a3Se5bfRKO" opacity="1" fill-opacity="0" stroke="#000000" stroke-width="1" stroke-opacity="0"></use></g></g></g></svg>
