<?xml version="1.0" encoding="UTF-8" standalone="no"?>
<!DOCTYPE svg PUBLIC "-//W3C//DTD SVG 1.1//EN" "http://www.w3.org/Graphics/SVG/1.1/DTD/svg11.dtd">
<svg version="1.1" xmlns="http://www.w3.org/2000/svg" xmlns:xlink="http://www.w3.org/1999/xlink" preserveAspectRatio="xMidYMid meet" viewBox="542.5910642929459 341.4195400000001 44.8424500000001 41.385310000000004" width="40.84" height="37.39"><defs><path d="M548.66 370.57L583.66 370.57L583.66 369.07L548.66 369.07L548.66 370.57Z" id="a3Vdtwvjt"></path><path d="M543.59 375.56L578.59 375.56L578.59 374.06L543.59 374.06L543.59 375.56Z" id="b28GpE9fdN"></path><path d="M549.43 379.8L584.43 379.8L584.43 378.3L549.43 378.3L549.43 379.8Z" id="bpHivdKUP"></path><path d="M553.18 365.24C566.48 365.24 573.87 365.24 575.35 365.24C575.5 365.24 575.65 365.24 575.8 365.26C575.8 365.26 575.8 365.24 575.8 365.24C579.42 365.24 582.37 362.3 582.37 358.67C582.37 355.05 579.42 352.1 575.8 352.1C575.29 352.1 574.75 352.17 574.21 352.3C574.04 352.35 573.85 352.32 573.7 352.22C573.55 352.12 573.45 351.96 573.42 351.78C572.69 347.1 568.72 343.71 563.99 343.71C558.72 343.71 554.43 348 554.43 353.27C554.43 353.53 554.45 353.78 554.47 354.04C554.49 354.23 554.42 354.42 554.28 354.55C554.14 354.69 553.95 354.75 553.76 354.73C553.57 354.71 553.37 354.7 553.18 354.7C550.27 354.7 547.91 357.06 547.91 359.97C547.91 362.88 550.27 365.24 553.18 365.24M553.14 353.41C553.14 353.36 553.14 353.32 553.14 353.27C553.14 347.29 558.01 342.42 563.99 342.42C569.13 342.42 573.48 345.95 574.57 350.92C574.99 350.85 575.4 350.81 575.8 350.81C580.13 350.81 583.66 354.34 583.66 358.67C583.66 363.01 580.13 366.53 575.79 366.53C575.4 366.53 573.45 366.53 569.93 366.53C559.88 366.53 554.29 366.53 553.18 366.53C549.56 366.53 546.62 363.59 546.62 359.97C546.62 356.36 549.54 353.43 553.14 353.41" id="clflPBxm8"></path></defs><g><g><use xlink:href="#a3Vdtwvjt" opacity="1" fill="current" fill-opacity="1"></use><g><use xlink:href="#a3Vdtwvjt" opacity="1" fill-opacity="0" stroke="#000000" stroke-width="1.5" stroke-opacity="0"></use></g></g><g><use xlink:href="#b28GpE9fdN" opacity="1" fill="current" fill-opacity="1"></use><g><use xlink:href="#b28GpE9fdN" opacity="1" fill-opacity="0" stroke="#000000" stroke-width="1.5" stroke-opacity="0"></use></g></g><g><use xlink:href="#bpHivdKUP" opacity="1" fill="current" fill-opacity="1"></use><g><use xlink:href="#bpHivdKUP" opacity="1" fill-opacity="0" stroke="#000000" stroke-width="1.5" stroke-opacity="0"></use></g></g><g><use xlink:href="#clflPBxm8" opacity="1" fill="current" fill-opacity="1"></use><g><use xlink:href="#clflPBxm8" opacity="1" fill-opacity="0" stroke="#000000" stroke-width="1" stroke-opacity="0"></use></g></g></g></svg>
