<?xml version="1.0" encoding="UTF-8" standalone="no"?>
<!DOCTYPE svg PUBLIC "-//W3C//DTD SVG 1.1//EN" "http://www.w3.org/Graphics/SVG/1.1/DTD/svg11.dtd">
<svg version="1.1" xmlns="http://www.w3.org/2000/svg" xmlns:xlink="http://www.w3.org/1999/xlink" preserveAspectRatio="xMidYMid meet" viewBox="93.59138626306074 154.90730000000002 47.213497459063944 47.18261999999993" width="43.21" height="43.18"><defs><path d="M116.2 187.52C110.72 187.52 106.27 183.06 106.27 177.58C106.27 172.1 110.72 167.64 116.2 167.64C121.68 167.64 126.14 172.1 126.14 177.58C126.14 183.06 121.68 187.52 116.2 187.52M116.2 166.24C109.95 166.24 104.86 171.33 104.86 177.58C104.86 183.83 109.95 188.92 116.2 188.92C122.45 188.92 127.54 183.83 127.54 177.58C127.54 171.33 122.45 166.24 116.2 166.24" id="b6EBAdPZFS"></path><path d="M116.2 162.92C116.59 162.92 116.9 162.6 116.9 162.21C116.9 161.65 116.9 157.17 116.9 156.61C116.9 156.22 116.59 155.91 116.2 155.91C115.81 155.91 115.5 156.22 115.5 156.61C115.5 157.17 115.5 161.65 115.5 162.21C115.5 162.6 115.81 162.92 116.2 162.92" id="eA2hChwn9"></path><path d="M116.2 192.08C115.81 192.08 115.5 192.39 115.5 192.78C115.5 193.34 115.5 197.83 115.5 198.39C115.5 198.78 115.81 199.09 116.2 199.09C116.59 199.09 116.9 198.78 116.9 198.39C116.9 197.83 116.9 193.34 116.9 192.78C116.9 192.39 116.59 192.08 116.2 192.08" id="a2JnKQxvgC"></path><path d="M123.88 165.1C123.99 165.17 124.12 165.21 124.25 165.21C124.48 165.21 124.71 165.09 124.85 164.87C125.14 164.4 127.5 160.58 127.8 160.11C128 159.78 127.9 159.35 127.57 159.14C127.24 158.94 126.81 159.04 126.6 159.37C126.31 159.84 123.95 163.66 123.65 164.14C123.45 164.46 123.55 164.9 123.88 165.1" id="bvBO0b5KG"></path><path d="M108.53 189.9C108.2 189.69 107.76 189.79 107.56 190.12C107.26 190.6 104.9 194.41 104.61 194.89C104.4 195.22 104.51 195.65 104.84 195.86C104.95 195.93 105.08 195.96 105.2 195.96C105.44 195.96 105.67 195.84 105.8 195.63C106.1 195.15 108.46 191.34 108.75 190.86C108.96 190.53 108.85 190.1 108.53 189.9" id="b12PBlPYVG"></path><path d="M129.68 171C129.79 171 129.91 170.98 130.01 170.92C130.51 170.66 134.46 168.54 134.96 168.27C135.3 168.09 135.43 167.67 135.25 167.32C135.06 166.98 134.64 166.85 134.3 167.04C133.8 167.3 129.85 169.42 129.35 169.68C129.01 169.87 128.88 170.29 129.06 170.63C129.19 170.87 129.43 171 129.68 171" id="a1Nd1rhUhT"></path><path d="M102.38 184.12C99.41 185.71 97.76 186.59 97.43 186.77C97.09 186.95 96.96 187.38 97.15 187.72C97.27 187.95 97.52 188.09 97.77 188.09C97.88 188.09 97.99 188.06 98.1 188.01C98.59 187.74 102.55 185.62 103.04 185.36C103.39 185.17 103.51 184.75 103.33 184.41C103.15 184.07 102.72 183.94 102.38 184.12" id="d2wxAOGfc6"></path><path d="M137.1 176.76L137.1 176.76C133.74 176.77 131.87 176.77 131.49 176.77C131.1 176.78 130.79 177.09 130.79 177.48C130.79 177.86 131.11 178.18 131.49 178.18C131.49 178.18 131.49 178.18 131.49 178.18C134.86 178.17 136.73 178.16 137.1 178.16C137.49 178.16 137.81 177.85 137.8 177.46C137.8 177.07 137.49 176.76 137.1 176.76" id="j1Hek8tljE"></path><path d="M101.6 177.56C101.6 177.17 101.29 176.86 100.9 176.86C100.9 176.86 100.9 176.86 100.9 176.86C97.54 176.87 95.67 176.88 95.29 176.88C94.9 176.88 94.59 177.19 94.59 177.58C94.59 177.97 94.91 178.28 95.29 178.28C95.29 178.28 95.29 178.28 95.29 178.28C98.66 178.27 100.53 178.27 100.9 178.26C101.29 178.26 101.6 177.95 101.6 177.56" id="c19TTM8T3e"></path><path d="M134.89 186.91C131.94 185.29 130.29 184.4 129.97 184.22C129.63 184.03 129.2 184.16 129.01 184.5C128.83 184.84 128.95 185.26 129.29 185.45C129.79 185.72 133.72 187.87 134.22 188.14C134.32 188.2 134.44 188.23 134.55 188.23C134.8 188.23 135.04 188.09 135.17 187.86C135.36 187.52 135.23 187.09 134.89 186.91" id="a4z67QYpL0"></path><path d="M103.11 169.54C100.16 167.93 98.52 167.03 98.19 166.85C97.85 166.66 97.42 166.79 97.24 167.13C97.05 167.47 97.18 167.9 97.52 168.08C98.01 168.35 101.95 170.5 102.44 170.77C102.55 170.83 102.66 170.86 102.78 170.86C103.03 170.86 103.27 170.73 103.39 170.49C103.58 170.15 103.45 169.73 103.11 169.54" id="c1oQpIsLJi"></path><path d="M123.94 189.87C123.61 190.08 123.51 190.51 123.72 190.84C124.02 191.32 126.4 195.12 126.69 195.6C126.83 195.81 127.06 195.93 127.29 195.93C127.42 195.93 127.54 195.89 127.66 195.82C127.99 195.62 128.09 195.18 127.88 194.85C127.69 194.54 126.69 192.95 124.91 190.1C124.48 189.81 124.16 189.74 123.94 189.87Z" id="a2nhZaIsnA"></path><path d="M108.09 165.22C108.22 165.22 108.35 165.19 108.46 165.12C108.79 164.91 108.89 164.48 108.69 164.15C108.39 163.67 106.01 159.87 105.71 159.39C105.51 159.06 105.07 158.96 104.74 159.17C104.42 159.37 104.32 159.81 104.52 160.14C104.72 160.45 105.71 162.04 107.5 164.89C107.74 165.11 107.94 165.22 108.09 165.22Z" id="b1BisHCY1J"></path></defs><g><g><use xlink:href="#b6EBAdPZFS" opacity="1" fill="current" fill-opacity="1"></use><g><use xlink:href="#b6EBAdPZFS" opacity="1" fill-opacity="0" stroke="#000000" stroke-width="1" stroke-opacity="0"></use></g></g><g><use xlink:href="#eA2hChwn9" opacity="1" fill="current" fill-opacity="1"></use><g><use xlink:href="#eA2hChwn9" opacity="1" fill-opacity="0" stroke="#000000" stroke-width="1" stroke-opacity="0"></use></g></g><g><use xlink:href="#a2JnKQxvgC" opacity="1" fill="current" fill-opacity="1"></use><g><use xlink:href="#a2JnKQxvgC" opacity="1" fill-opacity="0" stroke="#000000" stroke-width="1" stroke-opacity="0"></use></g></g><g><use xlink:href="#bvBO0b5KG" opacity="1" fill="current" fill-opacity="1"></use><g><use xlink:href="#bvBO0b5KG" opacity="1" fill-opacity="0" stroke="#000000" stroke-width="1" stroke-opacity="0"></use></g></g><g><use xlink:href="#b12PBlPYVG" opacity="1" fill="current" fill-opacity="1"></use><g><use xlink:href="#b12PBlPYVG" opacity="1" fill-opacity="0" stroke="#000000" stroke-width="1" stroke-opacity="0"></use></g></g><g><use xlink:href="#a1Nd1rhUhT" opacity="1" fill="current" fill-opacity="1"></use><g><use xlink:href="#a1Nd1rhUhT" opacity="1" fill-opacity="0" stroke="#000000" stroke-width="1" stroke-opacity="0"></use></g></g><g><use xlink:href="#d2wxAOGfc6" opacity="1" fill="current" fill-opacity="1"></use><g><use xlink:href="#d2wxAOGfc6" opacity="1" fill-opacity="0" stroke="#000000" stroke-width="1" stroke-opacity="0"></use></g></g><g><use xlink:href="#j1Hek8tljE" opacity="1" fill="current" fill-opacity="1"></use><g><use xlink:href="#j1Hek8tljE" opacity="1" fill-opacity="0" stroke="#000000" stroke-width="1" stroke-opacity="0"></use></g></g><g><use xlink:href="#c19TTM8T3e" opacity="1" fill="current" fill-opacity="1"></use><g><use xlink:href="#c19TTM8T3e" opacity="1" fill-opacity="0" stroke="#000000" stroke-width="1" stroke-opacity="0"></use></g></g><g><use xlink:href="#a4z67QYpL0" opacity="1" fill="current" fill-opacity="1"></use><g><use xlink:href="#a4z67QYpL0" opacity="1" fill-opacity="0" stroke="#000000" stroke-width="1" stroke-opacity="0"></use></g></g><g><use xlink:href="#c1oQpIsLJi" opacity="1" fill="current" fill-opacity="1"></use><g><use xlink:href="#c1oQpIsLJi" opacity="1" fill-opacity="0" stroke="#000000" stroke-width="1" stroke-opacity="0"></use></g></g><g><use xlink:href="#a2nhZaIsnA" opacity="1" fill="current" fill-opacity="1"></use><g><use xlink:href="#a2nhZaIsnA" opacity="1" fill-opacity="0" stroke="#000000" stroke-width="1" stroke-opacity="0"></use></g></g><g><use xlink:href="#b1BisHCY1J" opacity="1" fill="current" fill-opacity="1"></use><g><use xlink:href="#b1BisHCY1J" opacity="1" fill-opacity="0" stroke="#000000" stroke-width="1" stroke-opacity="0"></use></g></g></g></svg>
